<svg xmlns="http://www.w3.org/2000/svg" height="800" width="1200" xml:space="preserve" y="0" x="0" id="art" version="1.1" viewBox="-109.89 -37.8 952.38 226.8"><style id="style44" type="text/css">.st0{fill:#e60019}</style><g id="g68"><g id="g50"><path id="path46" d="M113.6 46.5h32.3V148h-32.3z" class="st0"/><path id="path48" d="M152.7 46.5h31.1v13.9h.6c7.5-10.9 17.2-16.8 31.3-16.8 22.2 0 35.3 15.9 35.3 38.5v66h-32.3V88.6c0-10.7-5.4-18-15.9-18-10.7 0-17.8 8.9-17.8 21.4v56h-32.3z" class="st0"/></g><circle id="circle52" r="19.4" cy="19.4" cx="129.8" class="st0"/><path id="path54" d="M478.2 45.1c-.9-.1-2-.1-3.2-.1-12.3 0-20.6 5.4-27.8 17.4h-.6V46.5h-30.9V148H448v-45.6c0-21.1 11.7-30.9 30.2-29.2z" class="st0"/><path id="path56" d="M636.8 84c-12.9-2.4-24.4-3.4-24.4-10.5 0-6.3 6.1-9.3 14.1-9.3 8.9 0 15.1 2.8 16.3 11.9h29.7c-1.6-20-17-32.5-45.8-32.5-24 0-43.8 11.1-43.8 32.5 0 23.8 18.8 28.5 36.5 31.5 13.5 2.4 25.8 3.4 25.8 12.5 0 6.5-6.1 10.1-15.9 10.1-9.7 0-16.2-4.1-18.2-12.5h-30.8c2.3 20.9 20.6 33.5 49.2 33.5 26.6 0 46.2-11.5 46.2-33.7 0-26-21.1-30.5-38.9-33.5z" class="st0"/><path id="path58" d="M530.1 127.8c-13.3 0-20.8-8.5-22.8-22.2h72.9c.2-20.6-5.7-38.3-17.8-49.4-8.7-7.9-20.2-12.7-34.7-12.7-30.9 0-52.1 23.2-52.1 53.5 0 30.7 20.6 53.9 54.1 53.9 12.9 0 23.2-3.4 31.7-9.3 8.9-6.1 14.9-14.9 17-24H547c-2.8 6.4-8.3 10.2-16.9 10.2zm-1.7-61.2c10.5 0 18 7.7 19.2 19.8h-40c2.1-12.1 8.5-19.8 20.8-19.8z" class="st0"/><path id="path60" d="M732.6 124.1c-1.5.1-3.5.1-5.4.1-6.9 0-11.3-2-11.3-9.9V66.8h16.7V46.5h-16.7V14.4h-31.5v32.1h-9.9v20.2h9.9v54.5c0 21.8 13.5 28 32.3 28 7.2 0 12.6-.5 15.9-1.2z" class="st0"/><path id="path62" d="M308.7 124.1c-1.3 0-2.8.1-4.2.1-6.9 0-11.3-2-11.3-9.9V66.8h15.5V46.5h-15.5V14.4h-31.5v32.1h-10.5v20.2h10.5v54.5c0 21.8 13.5 28 32.3 28 6.4 0 11.4-.4 14.7-1z" class="st0"/><path id="path64" d="M307.1 97.1c0-30.3 21.2-53.5 52.1-53.5 14.5 0 26 4.8 34.7 12.7 12.1 11.1 18 28.7 17.8 49.4h-72.9c2 13.7 9.5 22.2 22.8 22.2 8.5 0 14.1-3.8 16.8-10.1H410c-2.2 9.1-8.1 17.8-17 24-8.5 5.9-18.8 9.3-31.7 9.3-33.6-.1-54.2-23.3-54.2-54zm72-10.7c-1.2-12.1-8.7-19.8-19.2-19.8-12.3 0-18.6 7.7-20.8 19.8z" class="st0"/><path id="path66" d="M0 6.3h56.1c17.2 0 29.9 4.8 38.7 13.1C103.9 27.9 109 40 109 54.3c0 27.2-18.8 46.4-48 46.4H32.7V148H0zm57.5 66.6c12.7 0 19.8-7.5 19.8-18.8S70 35.9 57.5 35.9H32.7V73h24.8z" class="st0"/></g></svg>